HIERARCHY
ROOT Hips
{
	OFFSET -0.001795 -0.223333 0.028219
	CHANNELS 6 Xposition Yposition Zposition Zrotation Yrotation Xrotation
	JOINT LeftUpLeg
	{
		OFFSET 0.069520 -0.091406 -0.006815
		CHANNELS 3 Zrotation Yrotation Xrotation
		JOINT LeftLeg
		{
			OFFSET 0.034277 -0.375199 -0.004496
			CHANNELS 3 Zrotation Yrotation Xrotation
			JOINT LeftFoot
			{
				OFFSET -0.013596 -0.397961 -0.043693
				CHANNELS 3 Zrotation Yrotation Xrotation
				JOINT LeftToe
				{
					OFFSET 0.026358 -0.055791 0.119288
					CHANNELS 3 Zrotation Yrotation Xrotation
					End Site
					{
						OFFSET 0.000000 0.000000 0.000000
					}
				}
			}
		}
	}
	JOINT RightUpLeg
	{
		OFFSET -0.067670 -0.090522 -0.004320
		CHANNELS 3 Zrotation Yrotation Xrotation
		JOINT RightLeg
		{
			OFFSET -0.038290 -0.382569 -0.008850
			CHANNELS 3 Zrotation Yrotation Xrotation
			JOINT RightFoot
			{
				OFFSET 0.015774 -0.398415 -0.042312
				CHANNELS 3 Zrotation Yrotation Xrotation
				JOINT RightToe
				{
					OFFSET -0.025372 -0.048144 0.123348
					CHANNELS 3 Zrotation Yrotation Xrotation
					End Site
					{
						OFFSET 0.000000 0.000000 0.000000
					}
				}
			}
		}
	}
	JOINT Spine
	{
		OFFSET -0.002533 0.108963 -0.026696
		CHANNELS 3 Zrotation Yrotation Xrotation
		JOINT Spine1
		{
			OFFSET 0.005487 0.135180 0.001092
			CHANNELS 3 Zrotation Yrotation Xrotation
			JOINT Spine2
			{
				OFFSET 0.001457 0.052922 0.025425
				CHANNELS 3 Zrotation Yrotation Xrotation
				JOINT Neck
				{
					OFFSET -0.002778 0.213870 -0.042857
					CHANNELS 3 Zrotation Yrotation Xrotation
					JOINT Head
					{
						OFFSET 0.005152 0.064970 0.051349
						CHANNELS 3 Zrotation Yrotation Xrotation
						End Site
						{
							OFFSET 0.000000 0.000000 0.000000
						}
					}
				}
				JOINT LeftShoulder
				{
					OFFSET 0.078845 0.121749 -0.034090
					CHANNELS 3 Zrotation Yrotation Xrotation
					JOINT LeftArm
					{
						OFFSET 0.090977 0.030469 -0.008868
						CHANNELS 3 Zrotation Yrotation Xrotation
						JOINT LeftForeArm
						{
							OFFSET 0.259612 -0.012772 -0.027456
							CHANNELS 3 Zrotation Yrotation Xrotation
							JOINT LeftHand
							{
								OFFSET 0.249234 0.008986 -0.001171
								CHANNELS 3 Zrotation Yrotation Xrotation
								End Site
								{
									OFFSET 0.000000 0.000000 0.000000
								}
							}
						}
					}
				}
				JOINT RightShoulder
				{
					OFFSET -0.081759 0.118833 -0.038615
					CHANNELS 3 Zrotation Yrotation Xrotation
					JOINT RightArm
					{
						OFFSET -0.096012 0.032551 -0.009143
						CHANNELS 3 Zrotation Yrotation Xrotation
						JOINT RightForeArm
						{
							OFFSET -0.253742 -0.013329 -0.021401
							CHANNELS 3 Zrotation Yrotation Xrotation
							JOINT RightHand
							{
								OFFSET -0.255298 0.007772 -0.005559
								CHANNELS 3 Zrotation Yrotation Xrotation
								End Site
								{
									OFFSET 0.000000 0.000000 0.000000
								}
							}
						}
					}
				}
			}
		}
	}
}
MOTION
Frames: 17
Frame Time: 0.050000
0.257612 0.565538 0.670076 -19.643403 -25.802213 13.217610 2.830166 0.636225 6.066510 -0.634292 18.170856 82.555558 1.903275 -9.746302 -20.655935 0.000000 0.000000 0.000000 -12.029736 8.413647 -55.445468 59.693365 -37.788903 70.432415 -11.045082 -53.260305 -30.237220 0.000000 0.000000 0.000000 9.272212 -1.490859 36.923107 18.789743 -2.552598 -27.920389 -0.520306 -5.535527 31.273620 -3.077688 0.342661 -20.160169 0.000000 0.000000 0.000000 -33.881699 -1.572390 8.307867 -51.629751 -15.980538 -4.865344 8.122010 -57.821915 3.452615 0.000000 0.000000 0.000000 31.798255 12.069660 -3.427289 32.996862 -10.277075 -4.982406 -20.093804 62.359402 -12.547750 0.000000 0.000000 0.000000
0.257803 0.553797 0.668257 -19.536771 -25.917778 11.986323 3.875409 0.620089 5.866984 1.344687 17.073745 86.919905 1.981533 -8.857808 -19.385282 0.000000 0.000000 0.000000 -11.302844 9.045023 -56.774975 58.339211 -38.438021 72.723984 -11.301927 -52.663492 -29.844467 0.000000 0.000000 0.000000 9.274649 -1.502526 36.230435 18.550986 -2.576873 -27.847127 0.246582 -6.940478 31.462322 -3.685528 0.508584 -20.619060 0.000000 0.000000 0.000000 -34.288015 -1.440793 8.942046 -51.903417 -16.099278 -5.062226 7.296129 -62.401227 4.804944 0.000000 0.000000 0.000000 30.974288 12.889690 -3.365657 33.709695 -9.213590 -4.755006 -24.718437 66.952339 -17.279537 0.000000 0.000000 0.000000
0.256965 0.547707 0.665970 -18.410357 -25.470116 9.771558 4.533531 0.618639 5.744003 3.177338 14.904186 90.730173 0.860549 -9.977720 -16.283228 0.000000 0.000000 0.000000 -10.039901 9.300221 -56.663067 54.007909 -38.660021 78.649983 -11.932074 -52.273149 -28.301780 0.000000 0.000000 0.000000 9.074893 -1.523991 35.607985 18.500421 -2.731364 -27.548569 -0.343663 -8.091191 31.288033 -3.729189 0.414883 -20.182345 0.000000 0.000000 0.000000 -34.991442 -1.696642 9.550256 -50.821501 -15.441345 -5.556739 6.301220 -67.981459 6.221789 0.000000 0.000000 0.000000 31.114181 13.576622 -3.242797 33.966418 -8.529774 -4.546455 -29.003786 72.713389 -22.675764 0.000000 0.000000 0.000000
0.255644 0.544867 0.664208 -17.587016 -25.244056 8.041876 5.220653 0.632062 5.722956 4.623698 12.866292 92.788399 -0.033907 -10.315252 -13.659495 0.000000 0.000000 0.000000 -8.340096 9.715956 -56.007094 49.702562 -37.484186 83.597563 -11.795391 -51.449299 -28.425814 0.000000 0.000000 0.000000 7.855281 -1.221188 34.805254 18.832122 -2.819601 -27.578656 -0.334155 -8.116436 31.681756 -3.560892 0.321564 -19.520309 0.000000 0.000000 0.000000 -35.300867 -2.566960 10.177262 -49.963601 -15.424871 -5.661018 8.136501 -73.939131 5.626934 0.000000 0.000000 0.000000 31.651872 13.990731 -2.927529 34.177929 -7.829249 -4.454110 -31.726752 75.919599 -26.082489 0.000000 0.000000 0.000000
0.254446 0.546371 0.662872 -16.657634 -23.862680 6.032658 5.997072 0.625761 5.721778 6.027315 9.477227 94.711140 -0.657167 -11.196305 -12.641509 0.000000 0.000000 0.000000 -7.428825 9.235868 -54.624351 46.166152 -36.366354 87.040146 -12.114139 -49.833861 -26.769210 0.000000 0.000000 0.000000 7.423614 -1.287227 34.283699 18.747423 -3.055251 -26.995621 -0.312777 -8.010826 30.690498 -3.497252 0.485652 -18.350235 0.000000 0.000000 0.000000 -35.985060 -3.009621 9.988936 -48.487695 -14.438758 -5.852934 1.334811 -79.216465 11.124655 0.000000 0.000000 0.000000 31.982637 13.859701 -2.534473 34.317082 -7.491359 -4.458972 -30.785897 78.046270 -26.056447 0.000000 0.000000 0.000000
0.253853 0.546443 0.662285 -15.622246 -22.929524 4.833455 6.574496 0.615701 5.659772 6.738605 7.361334 94.808375 -1.174495 -11.925941 -11.928421 0.000000 0.000000 0.000000 -7.413383 8.768073 -54.022555 44.198807 -35.892751 89.070192 -12.399100 -49.445266 -25.868107 0.000000 0.000000 0.000000 6.282897 -1.092239 33.272380 17.955232 -3.048119 -26.675008 0.424855 -7.452350 29.632566 -2.178665 -0.244122 -16.915643 0.000000 0.000000 0.000000 -35.387595 -3.761878 9.856435 -48.167680 -14.079272 -5.675066 -14.710988 -83.641639 26.068336 0.000000 0.000000 0.000000 31.915234 13.801024 -2.021802 34.230233 -7.387144 -4.513394 -25.796344 78.773866 -22.004991 0.000000 0.000000 0.000000
0.253962 0.547516 0.662762 -14.814822 -21.249832 3.738110 7.002694 0.578921 5.569292 6.899492 5.280887 94.910499 -1.049170 -12.393813 -12.885308 0.000000 0.000000 0.000000 -8.089346 7.758194 -53.162379 42.696327 -35.762277 90.204147 -12.701257 -48.108150 -24.273215 0.000000 0.000000 0.000000 5.561531 -1.090426 32.446941 17.292900 -3.035480 -26.437274 1.381905 -7.492731 28.498293 -2.191730 -0.077350 -16.379092 0.000000 0.000000 0.000000 -35.223064 -3.853814 9.375336 -48.327174 -13.781869 -5.534299 -65.095825 -84.373232 73.554974 0.000000 0.000000 0.000000 31.709755 13.089202 -2.030822 34.431270 -7.569474 -4.664584 -19.807576 78.813016 -16.917867 0.000000 0.000000 0.000000
0.254764 0.547186 0.664356 -14.024018 -19.792580 2.988871 7.511673 0.552796 5.621568 6.549153 4.216591 94.689415 -1.345646 -12.146817 -11.892727 0.000000 0.000000 0.000000 -8.830646 6.954428 -52.764347 41.742674 -35.736410 90.665197 -13.814133 -48.870879 -21.855154 0.000000 0.000000 0.000000 4.735785 -1.025773 31.503003 17.196535 -2.930279 -26.952413 1.672021 -6.959910 27.620569 -1.616222 -0.294609 -15.933512 0.000000 0.000000 0.000000 -34.627014 -4.359676 9.030077 -48.378278 -13.936651 -5.165493 -90.340919 -81.843694 95.795406 0.000000 0.000000 0.000000 31.672374 12.503584 -1.851878 34.747912 -7.402370 -4.768618 -13.790927 78.406436 -11.651286 0.000000 0.000000 0.000000
0.255742 0.545096 0.667270 -13.689612 -18.573724 2.617297 7.662517 0.558551 6.324887 6.200693 3.444395 94.365964 -1.672160 -12.532505 -11.401614 0.000000 0.000000 0.000000 -9.647849 6.078367 -51.707776 41.134028 -35.829891 91.048311 -12.959367 -47.432740 -23.461948 0.000000 0.000000 0.000000 4.535467 -1.103276 30.298481 16.605600 -2.869641 -26.788309 2.094399 -7.363620 26.250370 -1.977699 0.007567 -16.102936 0.000000 0.000000 0.000000 -33.801541 -4.290194 8.654087 -48.606624 -14.616943 -4.645988 -102.670495 -79.120460 105.917826 0.000000 0.000000 0.000000 31.111250 12.011810 -2.044494 34.956068 -7.746437 -4.853627 -11.047918 78.283798 -9.497282 0.000000 0.000000 0.000000
0.256672 0.541150 0.671151 -13.537255 -17.627014 2.126693 8.305065 0.577220 7.239439 5.803729 2.933260 94.098197 -2.163521 -12.726703 -10.225283 0.000000 0.000000 0.000000 -10.256682 5.367299 -50.496675 41.540139 -36.341697 90.454627 -13.002488 -48.646505 -24.265991 0.000000 0.000000 0.000000 4.444068 -1.169949 29.796536 16.557267 -2.591826 -28.199977 1.953829 -7.323027 26.070264 -2.188754 0.243719 -15.811120 0.000000 0.000000 0.000000 -31.949553 -5.051279 8.643338 -48.734666 -15.895895 -3.864846 -116.841512 -75.831854 118.524173 0.000000 0.000000 0.000000 29.864198 11.421181 -1.979532 35.748280 -7.399985 -5.003036 -15.263683 80.081272 -13.484487 0.000000 0.000000 0.000000
0.256826 0.536123 0.675386 -13.500697 -16.830430 1.876262 8.356516 0.601995 8.218934 5.995744 1.866916 93.292296 -3.682569 -13.881513 -7.138632 0.000000 0.000000 0.000000 -10.836398 4.813090 -49.700913 42.689294 -37.259963 89.185359 -13.838349 -51.495277 -23.971210 0.000000 0.000000 0.000000 4.524693 -1.259775 28.725436 15.906089 -2.531711 -28.008611 1.728945 -7.573537 24.948331 -2.396743 0.432241 -15.632369 0.000000 0.000000 0.000000 -29.780024 -5.356187 8.296285 -48.661181 -16.932172 -3.066249 -126.503803 -72.074878 126.668505 0.000000 0.000000 0.000000 29.586744 10.644057 -2.424577 35.576505 -7.295072 -4.890643 -19.375003 81.906749 -17.609582 0.000000 0.000000 0.000000
0.256143 0.530954 0.679518 -13.355246 -16.348942 1.518563 8.704355 0.627776 9.164527 5.803812 1.561559 92.666848 -4.717674 -14.253378 -4.686752 0.000000 0.000000 0.000000 -11.464474 4.306826 -48.711265 44.250168 -38.320994 87.756669 -14.413707 -54.435784 -24.345629 0.000000 0.000000 0.000000 4.452300 -1.283203 27.827616 15.591707 -2.380929 -28.616076 1.193962 -7.731468 24.519177 -2.782535 0.786871 -14.485450 0.000000 0.000000 0.000000 -28.246415 -5.739998 8.169862 -47.744505 -18.030830 -2.411509 -134.713808 -68.915183 134.391789 0.000000 0.000000 0.000000 29.351289 10.385002 -2.533739 35.728466 -6.985837 -4.819008 -29.458154 83.695059 -27.345330 0.000000 0.000000 0.000000
0.255358 0.525460 0.682806 -13.412642 -15.934476 0.974092 9.374315 0.635206 9.990081 5.902142 0.875923 92.478970 -6.111765 -14.538136 -1.230696 0.000000 0.000000 0.000000 -11.580567 4.051154 -48.043853 45.620114 -39.470165 86.820689 -16.143585 -57.908736 -22.496043 0.000000 0.000000 0.000000 4.206660 -1.253473 27.734334 14.970367 -2.344970 -28.402375 1.437678 -8.440199 24.257255 -3.017896 0.898443 -14.444250 0.000000 0.000000 0.000000 -26.915692 -5.960461 8.154849 -47.832918 -19.920178 -1.478863 -141.310105 -66.533889 141.973469 0.000000 0.000000 0.000000 28.997075 10.348255 -2.691269 35.883034 -6.189256 -4.573106 -70.656167 85.256586 -67.342970 0.000000 0.000000 0.000000
0.255287 0.522281 0.684727 -13.143483 -16.006204 1.020898 9.006412 0.643098 9.807430 6.467124 0.225729 92.843417 -7.249961 -15.377383 0.797988 0.000000 0.000000 0.000000 -12.105185 3.845425 -47.869975 47.134852 -40.334311 85.627390 -16.624319 -60.360295 -22.957077 0.000000 0.000000 0.000000 4.423952 -1.298004 27.828542 14.775022 -2.352517 -28.228533 1.168394 -8.308384 23.513002 -3.178270 1.172424 -12.326840 0.000000 0.000000 0.000000 -25.650659 -6.068172 7.855006 -48.035026 -20.830830 -0.841926 -147.334469 -64.166044 149.145664 0.000000 0.000000 0.000000 28.068419 10.536382 -2.323409 37.017634 -5.548345 -4.597889 -105.411748 84.289981 -101.108554 0.000000 0.000000 0.000000
0.256753 0.519291 0.685161 -12.992275 -16.785936 1.389246 8.829493 0.630967 8.874231 7.763740 -0.698486 94.105539 -8.699984 -17.243480 2.294241 0.000000 0.000000 0.000000 -13.182140 3.708266 -48.330194 49.880711 -41.674383 83.624646 -16.892813 -62.200030 -23.414374 0.000000 0.000000 0.000000 4.756741 -1.319214 28.737568 14.383951 -2.288040 -28.194286 1.528764 -7.184560 23.043361 -2.467633 0.841240 -10.513533 0.000000 0.000000 0.000000 -24.918248 -6.313198 7.580840 -48.197885 -20.846748 -0.626317 -150.160446 -62.942890 152.242688 0.000000 0.000000 0.000000 27.538085 10.253597 -2.059107 37.069527 -3.853863 -4.232338 -118.969593 82.558334 -113.334936 0.000000 0.000000 0.000000
0.259514 0.517249 0.684590 -12.860843 -17.581666 1.853598 8.349397 0.588256 7.395698 9.247256 -1.926519 95.830753 -9.990799 -19.714968 2.634915 0.000000 0.000000 0.000000 -14.876184 3.410753 -49.282119 53.378969 -43.010959 80.489865 -18.943776 -64.524937 -20.926188 0.000000 0.000000 0.000000 5.519322 -1.446079 29.418382 13.695154 -2.319831 -27.309606 1.962653 -6.597576 22.190414 -2.791336 1.245577 -9.158391 0.000000 0.000000 0.000000 -24.465239 -6.357815 7.427457 -48.220382 -19.480728 -1.057084 -154.092898 -62.225227 157.792982 0.000000 0.000000 0.000000 26.444349 11.309882 -1.110517 37.932274 -3.319487 -4.242324 -125.959593 79.530744 -118.080927 0.000000 0.000000 0.000000
0.262504 0.514691 0.683557 -12.519993 -19.470332 2.724522 7.533595 0.593636 6.435933 10.624127 -1.816703 96.426969 -10.616675 -22.466241 1.276773 0.000000 0.000000 0.000000 -16.592793 3.481768 -50.790440 56.699829 -44.089440 78.079224 -18.294936 -65.253996 -22.462571 0.000000 0.000000 0.000000 6.340937 -1.483250 30.641631 13.084743 -2.217927 -27.212495 2.258175 -5.769103 22.327902 -2.789017 1.240837 -9.408700 0.000000 0.000000 0.000000 -23.669792 -5.610540 6.906863 -48.494228 -17.042849 -2.017273 -157.046299 -61.689111 162.623336 0.000000 0.000000 0.000000 25.968159 11.676729 -0.873302 37.658988 -2.581502 -3.996345 -134.867968 78.081630 -126.955182 0.000000 0.000000 0.000000
